# xmcd CD database file
# Copyright (C) 1993-1998 Ti Kan
# 
# Track frame offsets:
#     150
#     20682
#     37287
#     55630
#     74662
#     88452
#     113895
#     128115
#     145337
#     157165
#     172140
#     186667
#     203317
#     225747
# 
# Disc length: 3241 seconds
# 
# Revision: 1
# Processed by: cddbd v1.4b41PL1 Copyright (c) Steve Scherf et al.
# Submitted via: DiscPlay 4.0.4
# 
DISCID=da0ca70e
DTITLE=Teresa James - The Whole Enchilada
DYEAR=1900
DGENRE=
TTITLE0=Trouble With Angels
TTITLE1=I know What Love Can Do
TTITLE2=24, 7, 365
TTITLE3=Thats What It Takes
TTITLE4=DayDrinking
TTITLE5=Love Is For All TImes
TTITLE6=Life Is Hard, Live With It
TTITLE7=Dangerous
TTITLE8=Serve Somebody
TTITLE9=Shoorah, Shoorah
TTITLE10=She's Got The Bug
TTITLE11=The Whole Enchilada
TTITLE12=Meet My Maker
TTITLE13=I Got Trouble With Love
EXTD=
EXTT0=
EXTT1=
EXTT2=
EXTT3=
EXTT4=
EXTT5=
EXTT6=
EXTT7=
EXTT8=
EXTT9=
EXTT10=
EXTT11=
EXTT12=
EXTT13=
PLAYORDER=
